<svg version="1.2" xmlns="http://www.w3.org/2000/svg" viewBox="0 0 708 179" width="708" height="179">
	<title>logo-green-forestia-cocina-local-svg</title>
	<style>
		.s0 { fill: #1a3c34 } 
	</style>
	<g>
		<g>
			<path class="s0" d="m205.1 133.7c0-11.3 7.6-20.3 17.8-20.3 6.8 0 12.1 3.4 14.6 10l-3.1 1.7c-2-5.8-6.2-8.6-11.7-8.6-8.1 0-13.8 7.2-13.8 17.2 0 9.9 5.7 17.1 13.8 17.1 5.4 0 9.7-2.8 11.7-8.6l3.1 1.7c-2.5 6.6-7.8 10-14.6 10-10.2 0-17.8-9-17.8-20.2z"/>
			<path fill-rule="evenodd" class="s0" d="m242.5 140.7c0-7.2 5.8-13.3 12.7-13.3 7 0 12.7 6.1 12.7 13.3 0 7.1-5.7 13.2-12.7 13.2-7 0-12.7-6.1-12.7-13.2zm22 0c0-6-4-10.4-9.3-10.4-5.2 0-9.3 4.4-9.3 10.4 0 5.9 4 10.3 9.3 10.3 5.3 0 9.3-4.5 9.3-10.3z"/>
			<path class="s0" d="m273.7 140.8c0-7.2 5.6-13.4 13.2-13.4 4.8 0 8.6 2.5 10.3 6.9l-2.5 1.5c-1.6-3.6-4.3-5.5-8-5.5-5.6 0-9.6 4.6-9.6 10.5 0 5.9 3.9 10.2 9.6 10.2 3.8 0 6.9-1.8 8.2-5.2l2.6 1.5c-1.9 3.9-5.8 6.6-10.8 6.6-7.3 0-13-5.9-13-13.1z"/>
			<path class="s0" d="m303.9 118.9c0-1.4 1.1-2.5 2.5-2.5 1.5 0 2.6 1.1 2.6 2.5 0 1.5-1.1 2.5-2.6 2.5-1.5 0-2.5-1-2.5-2.5zm0.9 9h1c1.2 0 1.8-0.1 2.3-0.3v25.8h-3.4z"/>
			<path class="s0" d="m317.9 127.9h1c1.3 0 1.8-0.1 2.3-0.3v6c1.5-4 5.3-6.2 9.8-6.2 5.5 0 8.6 3 8.6 9v17h-3.3v-16.6c0-4.6-2-6.4-6.1-6.4-5.3 0-9 3.2-9 8.8v14.2h-3.3v-25.5z"/>
			<path fill-rule="evenodd" class="s0" d="m347.2 147.2c0-5.3 4.9-6.9 10.9-7.5 4.8-0.5 6.3-1 6.3-4.1 0-3.7-2-5.4-6.1-5.4-3.8 0-6.3 1.3-7.5 3.8l-2.4-1.4c1.5-3.3 5.4-5.2 10.3-5.2 5.8 0 9 2.8 9 8.8v17.2h-3.3v-4.8c-1.3 3.4-4.5 5.3-9 5.3-5 0-8.2-2.5-8.2-6.7zm17.2-3.8v-3.9c-0.9 1.6-2.5 2.1-5.8 2.5-4.7 0.5-8.1 1.4-8.1 4.9 0 2.8 2 4.5 5.6 4.5 4.8 0 8.3-2.7 8.3-8z"/>
			<path class="s0" d="m390.1 113.9h3.7v36.6h18.1v2.9h-21.8z"/>
			<path fill-rule="evenodd" class="s0" d="m415.5 140.7c0-7.2 5.8-13.3 12.7-13.3 7 0 12.7 6.1 12.7 13.3 0 7.1-5.7 13.2-12.7 13.2-7 0-12.7-6.1-12.7-13.2zm22 0c0-6-4-10.4-9.3-10.4-5.3 0-9.3 4.4-9.3 10.4 0 5.9 4 10.3 9.3 10.3 5.3 0 9.3-4.5 9.3-10.3z"/>
			<path class="s0" d="m446.7 140.8c0-7.2 5.5-13.4 13.1-13.4 4.8 0 8.7 2.5 10.4 6.9l-2.5 1.5c-1.6-3.6-4.3-5.5-8-5.5-5.6 0-9.6 4.6-9.6 10.5 0 5.9 3.9 10.2 9.6 10.2 3.8 0 6.8-1.8 8.2-5.2l2.5 1.5c-1.8 3.9-5.7 6.6-10.7 6.6-7.3 0-13-5.9-13-13.1z"/>
			<path fill-rule="evenodd" class="s0" d="m475.4 147.2c0-5.3 4.9-6.9 10.9-7.5 4.7-0.5 6.2-1 6.2-4.1 0-3.7-1.9-5.4-6.1-5.4-3.7 0-6.2 1.3-7.4 3.8l-2.4-1.4c1.5-3.3 5.4-5.2 10.2-5.2 5.8 0 9.1 2.8 9.1 8.8v17.2h-3.3v-4.8c-1.3 3.4-4.6 5.3-9 5.3-5.1 0-8.2-2.5-8.2-6.7zm17.1-3.8v-3.9c-0.9 1.6-2.4 2.1-5.8 2.5-4.6 0.5-8 1.4-8 4.9 0 2.8 1.9 4.5 5.6 4.5 4.7 0 8.2-2.7 8.2-8z"/>
			<path class="s0" d="m505.5 113.9h1.1c1.2 0 1.8-0.1 2.3-0.3v39.8h-3.4z"/>
		</g>
		<g>
			<path class="s0" d="m205.1 94.6v-71.5h46.3v11.5h-33.5v19.3h32.8v11.4h-32.8v29.3c0 0-12.8 0-12.8 0z"/>
			<path fill-rule="evenodd" class="s0" d="m298.4 21.7l22 7.3 14.3 18.1v23.5l-14.3 18.2-22 7.3-21.9-7.3-14.3-18.2v-23.5l14.3-18.1zm23.4 45.4v-16.5l-9.3-12.2-14.1-4.7-14.1 4.7-9.3 12.2v16.5l9.3 12.1 14.1 4.7 14.1-4.7z"/>
			<path fill-rule="evenodd" class="s0" d="m395.5 28.4l10.4 13.4v14.6l-10.4 13.3-8 2.4 21.2 22.6h-16.5l-18.7-19.8h-11v19.8h-12.9v-71.6h30.9c0 0 15 5.3 15 5.3zm-33 6.2v28.8h15.9l9.1-3 5.8-7.7v-7.4l-5.8-7.8-9.1-2.9z"/>
			<path class="s0" d="m420.2 23.1h47.6v11.5h-34.7v17.9h34v11.5h-34v19.2h35.4v11.4h-48.3z"/>
			<path class="s0" d="m520.3 56.8l9.2 11.9v10.1l-10 12-15.2 5.3-16.3-5.3-10-16.8h13.3l3.9 7.5 9.1 3.7 8.6-3.2 4.4-5.8v-4.7l-4.4-5.5-24-7.7-8.3-10v-9.6l7.7-11.8 15.1-5.2 15.4 5.2 8.1 14.1h-12.9l-2.5-5.3-8.2-3-7.7 3-2.8 5.2v3.3l2.7 4.2 24.8 8.5z"/>
			<path class="s0" d="m591.9 34.6h-21.4v60h-12.9v-60h-21.4v-11.5h55.7v11.5z"/>
			<path class="s0" d="m616.5 23.1v71.5h-12.8v-71.5z"/>
			<path fill-rule="evenodd" class="s0" d="m646.2 82.2l-4.8 12.4h-13.6l30.4-71.5h10.4l30.3 71.5h-13.6l-4.8-12.4zm4.3-11h25.7l-12.8-33.3c0 0-12.9 33.3-12.9 33.3z"/>
		</g>
	</g>
	<g>
		<path class="s0" d="m168 53.3q-1.4-3.5-3.1-6.9c0.5 3.9 0.7 7.9 0.7 11.9q1.2-2.4 2.4-5z"/>
		<path fill-rule="evenodd" class="s0" d="m21.2 114.8q-1.4 2.1-2.2 4.3c-3.6-9.2-5.6-19.3-5.6-29.8 0-45.2 36.6-81.8 81.8-81.8 10.4 0 20.4 1.9 29.6 5.5-2.4 4.2-2.7 9-1.2 13.2 4.7-0.4 9.2-2.9 11.9-7.2q0.2-0.4 0.4-0.7c8.7 5 16.4 11.6 22.8 19.4q0.6 2 1 4.1c-1.4-2.7-3.7-4.9-6.7-6.1-4-1.7-8.4-1.3-11.9 0.7 1.1 3.9 3.9 7.2 7.9 8.9 3.8 1.6 7.9 1.3 11.3-0.5 1.3 6.8 1.5 13.8 0.8 20.6-6.7 9.6-14.3 18.4-22.8 26.1 1.7-2.9 2.8-6.4 3-10.1 0.4-7.2-2.7-13.9-7.8-18.3-5.5 3.9-9.3 10.1-9.7 17.4-0.3 6.8 2.4 13.1 6.9 17.5-8.7 7.1-18.2 13.1-28.4 18.1l3 6.1c27.6-13.5 50.5-34.7 66.7-61.1 2.9 7.8 4.6 16.1 4.9 24.9q-0.1-0.6-0.3-1.2c-1.2-3.6-3.9-6.3-7.1-7.5-2 2.9-2.7 6.7-1.5 10.2 1.2 3.6 3.9 6.3 7.1 7.5 1-1.4 1.6-2.9 1.9-4.5q-0.1 4.9-0.7 9.7c-5.5-3.8-10.8-8.3-15.7-13.5l-5 4.6c6.1 6.5 12.6 11.7 19.3 16.2-7.5 33.3-35.4 58.8-69.7 62.9 0.5-8.4 0.4-16.8-0.4-25.3-1.4-15.2-6.7-32.4-14.4-49.2 4.1-2 7.5-5.5 9.4-10 2.5-5.8 2-12.2-0.9-17.3-5.7 1.5-10.6 5.5-13.1 11.4q-0.9 2.1-1.2 4.3c-8.7-16-19.5-31-31.4-42.7l-5.6 5.8c14.8 14.6 27.9 34.7 37 55.2-11.4-5.4-24.3-7.7-37-6.6q0.9-0.2 1.9-0.4c-0.1-5.9-2.8-11.7-7.8-15.5-5-3.9-11.3-4.9-17-3.4 0.1 5.9 2.7 11.7 7.8 15.5 3.7 2.9 8.2 4.2 12.6 4-8.9 1.1-17.6 3.8-25.5 8.2l2.1 3.7c20.1-11.2 46-10.8 65.5 0.7 5.1 12.8 8.5 25.6 9.6 37.1q0.1 2.1 0.3 4.2c-1-3.1-3-5.9-5.8-7.8-3.9-2.6-8.6-3-12.7-1.7 0.3 4.3 2.5 8.5 6.4 11.1 3.8 2.5 8.3 3 12.3 1.8q0.3 8.8-0.3 17.5-0.9 0-1.8 0c-15.5 0-30.1-4.3-42.5-11.9l-0.2-23c4.8 0.6 9.8-0.7 13.6-4.3 4-3.6 5.7-8.7 5.3-13.7-4.9-0.8-10.1 0.6-14 4.3-2.6 2.4-4.3 5.5-5 8.8l-0.1-9.2-4.2 0.1 0.4 34.3c-9.6-6.7-17.6-15.4-23.6-25.4 3.7-1.5 6.9-4.1 9.3-7.6 3.6-5.4 4.2-11.9 2.3-17.6-6 0.5-11.7 3.6-15.3 9zm53.6-88c4.7 3.3 10.8 4.5 16.8 2.7 5.9-1.8 10.3-6.3 12.4-11.6-4.8-3.3-10.9-4.5-16.8-2.7-6 1.8-10.4 6.3-12.4 11.6zm-6.6-0.1l-2.4 3.5q4.8 3.2 9.7 6.1c-2.6 3.4-3.9 7.9-3 12.6 1 4.9 4.2 8.9 8.3 11.1 3.1-3.6 4.6-8.5 3.7-13.4-0.5-2.8-1.8-5.2-3.4-7.2 16.1 8.7 33.5 15 51.3 18.5l0.8-4.1c-7.4-1.5-14.7-3.5-22-5.9 11.7-4.2 22.8-10.4 32.4-18.1l-2.6-3.3c-10.7 8.5-23.1 15.1-36.2 19.1-12.9-4.9-25.2-11.2-36.6-18.9zm-32.4 38.7c2.8 3 6.9 4.7 11.3 4.2 4.4-0.4 8.1-2.9 10.3-6.4-2.9-2.9-7-4.6-11.4-4.1-4.4 0.4-8.1 2.9-10.2 6.3z"/>
	</g>
</svg>